<?xml version="1.0" encoding="utf-8"?>
<!-- Generator: Adobe Illustrator 19.0.0, SVG Export Plug-In . SVG Version: 6.00 Build 0)  -->
<svg version="1.1" id="Calque_1" xmlns="http://www.w3.org/2000/svg" xmlns:xlink="http://www.w3.org/1999/xlink" x="0px" y="0px"
	 viewBox="-158 204 322.4 74" style="enable-background:new -158 204 322.4 74;" xml:space="preserve">
<style type="text/css">
	.st0{fill:#E74C3C;}
</style>
<g>
	<path class="st0" d="M-98.4,223.4c-2.9,0-6.9-0.4-10.5-1l-13.6,33.6c-5.2,13.3-13.9,16.3-20,16.3c-9.3,0-14.8-6.9-14.8-14.3
		c0-8.1,6.7-14.7,15.1-14.2v6.1c-6.2-0.5-9,4.3-9,8.3c0,3.8,2.8,8.1,8.7,8.1c7.1,0,11.5-6.1,14.8-15.3l12-29.9
		c-8.8-1.8-17.7-4.2-23-4.2c-6.9,0-8.8,3.8-8.8,6.8c0,3.5,2.6,5.6,5.6,5.6c3.2,0,5.4-2.3,5.4-2.3l3.1,4.6c0,0-2.9,3.4-8.4,3.4
		c-6.5,0.1-11.7-4.8-11.7-11.4c0-6,4.3-12.7,15-12.7c10.5,0,28.3,6.4,39.8,6.4c6,0,8.3-2,8.3-2l3.8,2.1
		C-86.6,217.4-87.3,223.4-98.4,223.4z M-119.8,266.9c3.2-3.1,9.6-13,16.7-28.5c-1.3-1.3-2.2-2.8-2.2-4.5c0-3.3,3.4-6.5,6.2-7.4
		l3.8,2.7l-2.7,6.2c2.8,2.8,8.3,5.8,8.3,10.2c0,0.8-0.2,2.1-0.8,3.6l-3.2,7.8c-3.4,8.2-1.3,9-0.3,9c2.7,0,6.7-5.7,12.2-15.1
		c1,0,2.7,1.1,3,2.2c-5.4,9.3-10.6,17.6-17.3,17.6c-5.5,0-8.8-4.4-3.9-16.5l2.7-6.3c0.6-1.4,0.6-2.1,0.6-2.2c0-1.4-0.8-2.2-3.6-4.6
		c-6.4,13.9-13.3,25.4-17,28.6C-118.2,269.7-120,267.9-119.8,266.9z"/>
	<path class="st0" d="M-42.4,253.1c-5.4,9.4-11.7,17.6-18.9,17.6c-6.4,0-6.4-5.6-6.4-5.6s-4.2,5.6-9.9,5.6c-4.5,0-6.7-3.4-6.7-7.8
		c0-7.5,6.6-30.3,18.5-30.3c5.9,0,6.9,5.7,6.9,5.7l2-4.8h7.4l-9.5,23.6c-2.9,7.1-2,9-0.1,9c3.5,0,9-6.9,13.8-15.1
		C-44.4,250.9-42.8,252-42.4,253.1z M-66.9,258.1l5.8-14.4c0,0,0.1-5-3.4-5c-6.6,0-12.7,17.4-12.7,23c0,2,0.8,2.9,2.3,2.9
		C-70.8,264.6-66.9,258.1-66.9,258.1z"/>
	<path class="st0" d="M-6.1,253.1c-5.4,9.4-11.7,17.6-18.9,17.6c-6.4,0-6.4-5.6-6.4-5.6s-4.2,5.6-9.9,5.6c-4.5,0-6.7-3.4-6.7-7.8
		c0-7.5,6.6-30.3,18.5-30.3c5.9,0,6.9,5.7,6.9,5.7l7.6-18.6h7.4l-15.1,37.5c-3.1,7.6-1.8,9-0.2,9c3.6,0,9.1-6.9,13.9-15.1
		C-8.1,250.9-6.4,252-6.1,253.1z M-30.6,258.1l5.8-14.4c0,0,0.1-5-3.4-5c-6.6,0-12.7,17.4-12.7,23c0,2,0.8,2.9,2.3,2.9
		C-34.5,264.6-30.6,258.1-30.6,258.1z"/>
	<path class="st0" d="M4.2,226.5c0,1-0.1,2.1-0.3,3.2c-0.2,1.2-0.5,2.3-0.9,3.4c-0.4,1.1-1,2.2-1.7,3.2s-1.5,1.9-2.5,2.6l-3.7-2.6
		c0.6-0.7,1.1-1.4,1.4-2.1c0.3-0.7,0.6-1.3,0.8-2c-0.7-0.1-1.3-0.3-1.9-0.7c-0.6-0.3-1.1-0.8-1.5-1.3s-0.8-1.1-1-1.8
		c-0.3-0.7-0.4-1.4-0.4-2.1c0-0.8,0.2-1.5,0.5-2.2s0.7-1.3,1.3-1.9c0.5-0.5,1.2-1,1.8-1.3c0.7-0.3,1.4-0.5,2.2-0.5s1.6,0.2,2.3,0.5
		s1.3,0.7,1.9,1.3c0.5,0.5,0.9,1.2,1.2,1.9C4,224.9,4.2,225.7,4.2,226.5z"/>
	<path class="st0" d="M21.4,269.7h-9.8v-49h34.3v9.8H21.4v9.8h14.7v9.8H21.4V269.7z"/>
	<path class="st0" d="M81.1,251.1c0,2.7-0.5,5.3-1.5,7.6c-1,2.4-2.3,4.4-4,6.1s-3.7,3.1-5.9,4.1c-2.3,1-4.7,1.5-7.3,1.5
		s-5-0.5-7.3-1.5s-4.2-2.3-5.9-4.1c-1.7-1.7-3-3.8-4-6.1c-1-2.4-1.5-4.9-1.5-7.6c0-2.8,0.5-5.4,1.5-7.7c1-2.4,2.3-4.4,4-6.1
		s3.7-3.1,5.9-4.1c2.3-1,4.7-1.5,7.3-1.5c2.6,0,5,0.5,7.3,1.4s4.2,2.2,5.9,3.9s3,3.7,4,6.1C80.6,245.5,81.1,248.2,81.1,251.1z
		 M71.7,251.1c0-1.5-0.2-2.9-0.7-4.1c-0.5-1.2-1.2-2.3-2-3.1c-0.8-0.9-1.8-1.5-3-2c-1.1-0.5-2.3-0.7-3.6-0.7s-2.5,0.2-3.6,0.7
		s-2.1,1.1-2.9,2c-0.8,0.9-1.5,1.9-2,3.1s-0.7,2.6-0.7,4.1c0,1.4,0.2,2.7,0.7,3.9c0.5,1.2,1.1,2.3,2,3.1c0.8,0.9,1.8,1.6,2.9,2.1
		s2.3,0.8,3.6,0.8s2.5-0.2,3.6-0.7s2.1-1.2,3-2c0.8-0.9,1.5-1.9,2-3.1C71.4,253.9,71.7,252.6,71.7,251.1z"/>
	<path class="st0" d="M121.6,251.1c0,2.7-0.5,5.3-1.5,7.6c-1,2.4-2.3,4.4-4,6.1s-3.7,3.1-5.9,4.1s-4.7,1.5-7.3,1.5
		c-2.6,0-5-0.5-7.3-1.5s-4.2-2.3-5.9-4.1c-1.7-1.7-3-3.8-4-6.1c-1-2.4-1.5-4.9-1.5-7.6c0-2.8,0.5-5.4,1.5-7.7c1-2.4,2.3-4.4,4-6.1
		s3.7-3.1,5.9-4.1c2.3-1,4.7-1.5,7.3-1.5s5,0.5,7.3,1.4s4.2,2.2,5.9,3.9c1.7,1.7,3,3.7,4,6.1C121.1,245.5,121.6,248.2,121.6,251.1z
		 M112.2,251.1c0-1.5-0.2-2.9-0.7-4.1c-0.5-1.2-1.2-2.3-2-3.1c-0.8-0.9-1.8-1.5-3-2c-1.1-0.5-2.3-0.7-3.6-0.7
		c-1.3,0-2.5,0.2-3.6,0.7s-2.1,1.1-2.9,2s-1.5,1.9-2,3.1s-0.7,2.6-0.7,4.1c0,1.4,0.2,2.7,0.7,3.9c0.5,1.2,1.1,2.3,2,3.1
		c0.8,0.9,1.8,1.6,2.9,2.1s2.3,0.8,3.6,0.8c1.3,0,2.5-0.2,3.6-0.7s2.1-1.2,3-2c0.8-0.9,1.5-1.9,2-3.1
		C112,253.9,112.2,252.6,112.2,251.1z"/>
	<path class="st0" d="M162.1,269.7h-2.3l-3.6-5c-0.9,0.8-1.8,1.5-2.8,2.2s-2,1.3-3.1,1.8s-2.2,0.9-3.4,1.2c-1.2,0.3-2.3,0.4-3.5,0.4
		c-2.6,0-5-0.5-7.3-1.5s-4.2-2.3-5.9-4s-3-3.8-4-6.1c-1-2.4-1.5-4.9-1.5-7.7s0.5-5.3,1.5-7.7s2.3-4.4,4-6.2c1.7-1.7,3.7-3.1,5.9-4.1
		c2.3-1,4.7-1.5,7.3-1.5c0.8,0,1.7,0.1,2.5,0.2c0.9,0.1,1.7,0.4,2.6,0.7s1.6,0.7,2.3,1.2s1.3,1.1,1.8,1.8v-16.8h9.4v51.1H162.1z
		 M152.7,251.1c0-1.3-0.2-2.5-0.7-3.7s-1.2-2.3-2-3.2s-1.8-1.7-3-2.2c-1.1-0.6-2.3-0.8-3.6-0.8s-2.5,0.2-3.6,0.7s-2.1,1.1-2.9,2
		s-1.5,1.9-2,3.1c-0.5,1.2-0.7,2.6-0.7,4.2c0,1.3,0.2,2.6,0.7,3.8s1.1,2.3,2,3.2c0.8,0.9,1.8,1.6,2.9,2.2c1.1,0.5,2.3,0.8,3.6,0.8
		s2.5-0.3,3.6-0.8c1.1-0.6,2.1-1.3,3-2.2c0.8-0.9,1.5-2,2-3.2C152.5,253.6,152.7,252.4,152.7,251.1z"/>
</g>
</svg>
