<?xml version="1.0" encoding="utf-8"?>
<!-- Generator: Adobe Illustrator 19.0.0, SVG Export Plug-In . SVG Version: 6.00 Build 0)  -->
<svg version="1.1" id="Calque_1" xmlns="http://www.w3.org/2000/svg" xmlns:xlink="http://www.w3.org/1999/xlink" x="0px" y="0px"
	 viewBox="0 0 322.4 74" style="enable-background:new 0 0 322.4 74;" xml:space="preserve">
<style type="text/css">
	.st0{fill:#E3594E;}
</style>
<g>
	<path class="st0" d="M58.9,18.5c-2.9,0-6.9-0.4-10.5-1L34.8,51.1c-5.2,13.3-13.9,16.3-20,16.3C5.5,67.4,0,60.5,0,53.1
		C0,45,6.7,38.4,15.1,38.9V45c-6.2-0.5-9,4.3-9,8.3c0,3.8,2.8,8.1,8.7,8.1c7.1,0,11.5-6.1,14.8-15.3l12-29.9
		C32.8,14.4,23.9,12,18.6,12c-6.9,0-8.8,3.8-8.8,6.8c0,3.5,2.6,5.6,5.6,5.6c3.2,0,5.4-2.3,5.4-2.3l3.1,4.6c0,0-2.9,3.4-8.4,3.4
		C9,30.2,3.8,25.3,3.8,18.7C3.8,12.7,8.1,6,18.8,6c10.5,0,28.3,6.4,39.8,6.4c6,0,8.3-2,8.3-2l3.8,2.1C70.7,12.5,70,18.5,58.9,18.5z
		 M37.5,62c3.2-3.1,9.6-13,16.7-28.5c-1.3-1.3-2.2-2.8-2.2-4.5c0-3.3,3.4-6.5,6.2-7.4l3.8,2.7l-2.7,6.2c2.8,2.8,8.3,5.8,8.3,10.2
		c0,0.8-0.2,2.1-0.8,3.6l-3.2,7.8c-3.4,8.2-1.3,9-0.3,9c2.7,0,6.7-5.7,12.2-15.1c1,0,2.7,1.1,3,2.2c-5.4,9.3-10.6,17.6-17.3,17.6
		c-5.5,0-8.8-4.4-3.9-16.5L60,43c0.6-1.4,0.6-2.1,0.6-2.2c0-1.4-0.8-2.2-3.6-4.6C50.6,50.1,43.7,61.6,40,64.8
		C39.1,64.8,37.3,63,37.5,62z"/>
	<path class="st0" d="M114.9,48.2c-5.4,9.4-11.7,17.6-18.9,17.6c-6.4,0-6.4-5.6-6.4-5.6s-4.2,5.6-9.9,5.6c-4.5,0-6.7-3.4-6.7-7.8
		c0-7.5,6.6-30.3,18.5-30.3c5.9,0,6.9,5.7,6.9,5.7l2-4.8h7.4l-9.5,23.6c-2.9,7.1-2,9-0.1,9c3.5,0,9-6.9,13.8-15.1
		C112.9,46,114.5,47.1,114.9,48.2z M90.4,53.2l5.8-14.4c0,0,0.1-5-3.4-5c-6.6,0-12.7,17.4-12.7,23c0,2,0.8,2.9,2.3,2.9
		C86.5,59.7,90.4,53.2,90.4,53.2z"/>
	<path class="st0" d="M151.2,48.2c-5.4,9.4-11.7,17.6-18.9,17.6c-6.4,0-6.4-5.6-6.4-5.6s-4.2,5.6-9.9,5.6c-4.5,0-6.7-3.4-6.7-7.8
		c0-7.5,6.6-30.3,18.5-30.3c5.9,0,6.9,5.7,6.9,5.7l7.6-18.6h7.4l-15.1,37.5c-3.1,7.6-1.8,9-0.2,9c3.6,0,9.1-6.9,13.9-15.1
		C149.2,46,150.9,47.1,151.2,48.2z M126.7,53.2l5.8-14.4c0,0,0.1-5-3.4-5c-6.6,0-12.7,17.4-12.7,23c0,2,0.8,2.9,2.3,2.9
		C122.8,59.7,126.7,53.2,126.7,53.2z"/>
	<path class="st0" d="M161.5,21.6c0,1-0.1,2.1-0.3,3.2c-0.2,1.2-0.5,2.3-0.9,3.4c-0.4,1.1-1,2.2-1.7,3.2c-0.7,1-1.5,1.9-2.5,2.6
		l-3.7-2.6c0.6-0.7,1.1-1.4,1.4-2.1c0.3-0.7,0.6-1.3,0.8-2c-0.7-0.1-1.3-0.3-1.9-0.7c-0.6-0.3-1.1-0.8-1.5-1.3
		c-0.4-0.5-0.8-1.1-1-1.8c-0.3-0.7-0.4-1.4-0.4-2.1c0-0.8,0.2-1.5,0.5-2.2c0.3-0.7,0.7-1.3,1.3-1.9c0.5-0.5,1.2-1,1.8-1.3
		c0.7-0.3,1.4-0.5,2.2-0.5c0.8,0,1.6,0.2,2.3,0.5c0.7,0.3,1.3,0.7,1.9,1.3c0.5,0.5,0.9,1.2,1.2,1.9C161.3,20,161.5,20.8,161.5,21.6z
		"/>
	<path class="st0" d="M178.7,64.8h-9.8v-49h34.3v9.8h-24.5v9.8h14.7v9.8h-14.7V64.8z"/>
	<path class="st0" d="M238.4,46.2c0,2.7-0.5,5.3-1.5,7.6c-1,2.4-2.3,4.4-4,6.1c-1.7,1.7-3.7,3.1-5.9,4.1c-2.3,1-4.7,1.5-7.3,1.5
		c-2.6,0-5-0.5-7.3-1.5c-2.3-1-4.2-2.3-5.9-4.1c-1.7-1.7-3-3.8-4-6.1c-1-2.4-1.5-4.9-1.5-7.6c0-2.8,0.5-5.4,1.5-7.7
		c1-2.4,2.3-4.4,4-6.1c1.7-1.7,3.7-3.1,5.9-4.1c2.3-1,4.7-1.5,7.3-1.5c2.6,0,5,0.5,7.3,1.4c2.3,0.9,4.2,2.2,5.9,3.9
		c1.7,1.7,3,3.7,4,6.1C237.9,40.6,238.4,43.3,238.4,46.2z M229,46.2c0-1.5-0.2-2.9-0.7-4.1c-0.5-1.2-1.2-2.3-2-3.1
		c-0.8-0.9-1.8-1.5-3-2c-1.1-0.5-2.3-0.7-3.6-0.7c-1.3,0-2.5,0.2-3.6,0.7c-1.1,0.5-2.1,1.1-2.9,2c-0.8,0.9-1.5,1.9-2,3.1
		c-0.5,1.2-0.7,2.6-0.7,4.1c0,1.4,0.2,2.7,0.7,3.9c0.5,1.2,1.1,2.3,2,3.1c0.8,0.9,1.8,1.6,2.9,2.1s2.3,0.8,3.6,0.8
		c1.3,0,2.5-0.2,3.6-0.7s2.1-1.2,3-2c0.8-0.9,1.5-1.9,2-3.1C228.7,49,229,47.7,229,46.2z"/>
	<path class="st0" d="M278.9,46.2c0,2.7-0.5,5.3-1.5,7.6c-1,2.4-2.3,4.4-4,6.1c-1.7,1.7-3.7,3.1-5.9,4.1s-4.7,1.5-7.3,1.5
		c-2.6,0-5-0.5-7.3-1.5s-4.2-2.3-5.9-4.1c-1.7-1.7-3-3.8-4-6.1c-1-2.4-1.5-4.9-1.5-7.6c0-2.8,0.5-5.4,1.5-7.7c1-2.4,2.3-4.4,4-6.1
		c1.7-1.7,3.7-3.1,5.9-4.1c2.3-1,4.7-1.5,7.3-1.5c2.6,0,5,0.5,7.3,1.4s4.2,2.2,5.9,3.9c1.7,1.7,3,3.7,4,6.1
		C278.4,40.6,278.9,43.3,278.9,46.2z M269.5,46.2c0-1.5-0.2-2.9-0.7-4.1c-0.5-1.2-1.2-2.3-2-3.1c-0.8-0.9-1.8-1.5-3-2
		c-1.1-0.5-2.3-0.7-3.6-0.7c-1.3,0-2.5,0.2-3.6,0.7c-1.1,0.5-2.1,1.1-2.9,2c-0.8,0.9-1.5,1.9-2,3.1c-0.5,1.2-0.7,2.6-0.7,4.1
		c0,1.4,0.2,2.7,0.7,3.9c0.5,1.2,1.1,2.3,2,3.1c0.8,0.9,1.8,1.6,2.9,2.1c1.1,0.5,2.3,0.8,3.6,0.8c1.3,0,2.5-0.2,3.6-0.7
		c1.1-0.5,2.1-1.2,3-2c0.8-0.9,1.5-1.9,2-3.1C269.3,49,269.5,47.7,269.5,46.2z"/>
	<path class="st0" d="M319.4,64.8h-2.3l-3.6-5c-0.9,0.8-1.8,1.5-2.8,2.2c-1,0.7-2,1.3-3.1,1.8s-2.2,0.9-3.4,1.2
		c-1.2,0.3-2.3,0.4-3.5,0.4c-2.6,0-5-0.5-7.3-1.5s-4.2-2.3-5.9-4c-1.7-1.7-3-3.8-4-6.1c-1-2.4-1.5-4.9-1.5-7.7
		c0-2.8,0.5-5.3,1.5-7.7c1-2.4,2.3-4.4,4-6.2c1.7-1.7,3.7-3.1,5.9-4.1c2.3-1,4.7-1.5,7.3-1.5c0.8,0,1.7,0.1,2.5,0.2
		c0.9,0.1,1.7,0.4,2.6,0.7s1.6,0.7,2.3,1.2c0.7,0.5,1.3,1.1,1.8,1.8V13.7h9.4V64.8z M310,46.2c0-1.3-0.2-2.5-0.7-3.7
		c-0.5-1.2-1.2-2.3-2-3.2c-0.8-0.9-1.8-1.7-3-2.2c-1.1-0.6-2.3-0.8-3.6-0.8c-1.3,0-2.5,0.2-3.6,0.7c-1.1,0.5-2.1,1.1-2.9,2
		c-0.8,0.9-1.5,1.9-2,3.1s-0.7,2.6-0.7,4.2c0,1.3,0.2,2.6,0.7,3.8c0.5,1.2,1.1,2.3,2,3.2c0.8,0.9,1.8,1.6,2.9,2.2
		c1.1,0.5,2.3,0.8,3.6,0.8c1.3,0,2.5-0.3,3.6-0.8c1.1-0.6,2.1-1.3,3-2.2c0.8-0.9,1.5-2,2-3.2C309.8,48.7,310,47.5,310,46.2z"/>
</g>
</svg>
